<?xml version="1.0" standalone="no"?><!DOCTYPE svg PUBLIC "-//W3C//DTD SVG 1.1//EN" "http://www.w3.org/Graphics/SVG/1.1/DTD/svg11.dtd"><svg t="1782718352755" class="icon" viewBox="0 0 1024 1024" version="1.1" xmlns="http://www.w3.org/2000/svg" p-id="1707" xmlns:xlink="http://www.w3.org/1999/xlink" width="200" height="200"><path d="M208.457143 855.771429h610.742857c10.971429 0 18.285714 7.314286 18.285714 18.285714V914.285714c0 10.971429-7.314286 18.285714-18.285714 18.285715H208.457143v-76.8zM778.971429 87.771429H168.228571c-10.971429 0-18.285714 7.314286-18.285714 18.285714V146.285714c0 10.971429 7.314286 18.285714 18.285714 18.285715h610.742858V87.771429z" fill="#3CBAEB" p-id="1708"></path><path d="M841.142857 128m-73.142857 0a73.142857 73.142857 0 1 0 146.285714 0 73.142857 73.142857 0 1 0-146.285714 0Z" fill="#CFF2FF" p-id="1709"></path><path d="M841.142857 237.714286c-62.171429 0-109.714286-47.542857-109.714286-109.714286s47.542857-109.714286 109.714286-109.714286 109.714286 47.542857 109.714286 109.714286-47.542857 109.714286-109.714286 109.714286z m0-146.285715c-21.942857 0-36.571429 14.628571-36.571428 36.571429s14.628571 36.571429 36.571428 36.571429 36.571429-14.628571 36.571429-36.571429-14.628571-36.571429-36.571429-36.571429z" fill="#3CBAEB" p-id="1710"></path><path d="M146.285714 896m-73.142857 0a73.142857 73.142857 0 1 0 146.285714 0 73.142857 73.142857 0 1 0-146.285714 0Z" fill="#CFF2FF" p-id="1711"></path><path d="M146.285714 1005.714286c-62.171429 0-109.714286-47.542857-109.714285-109.714286s47.542857-109.714286 109.714285-109.714286 109.714286 47.542857 109.714286 109.714286-47.542857 109.714286-109.714286 109.714286z m0-146.285715c-21.942857 0-36.571429 14.628571-36.571428 36.571429s14.628571 36.571429 36.571428 36.571429 36.571429-14.628571 36.571429-36.571429-14.628571-36.571429-36.571429-36.571429z" fill="#3CBAEB" p-id="1712"></path><path d="M109.714286 215.771429C65.828571 215.771429 29.257143 179.2 29.257143 138.971429c0-43.885714 36.571429-80.457143 76.8-80.457143 190.171429 0 321.828571 47.542857 398.628571 146.285714 54.857143 69.485714 73.142857 138.971429 87.771429 299.885714v7.314286c10.971429 131.657143 21.942857 179.2 54.857143 219.428571 40.228571 54.857143 124.342857 80.457143 270.628571 76.8 43.885714 0 80.457143 32.914286 80.457143 76.8s-32.914286 80.457143-76.8 80.457143c-193.828571 3.657143-321.828571-40.228571-398.628571-138.971428-54.857143-69.485714-69.485714-135.314286-84.114286-299.885715v-7.314285c-10.971429-128-21.942857-175.542857-54.857143-219.428572C340.114286 245.028571 252.342857 215.771429 109.714286 215.771429z" fill="#99D9F2" p-id="1713"></path><path d="M892.342857 994.742857c-186.514286 0-314.514286-51.2-394.971428-153.6-54.857143-73.142857-76.8-142.628571-91.428572-314.514286v-7.314285c-10.971429-120.685714-21.942857-168.228571-51.2-204.8-36.571429-51.2-117.028571-73.142857-245.028571-73.142857h-3.657143c-29.257143 0-54.857143-10.971429-73.142857-29.257143-21.942857-18.285714-32.914286-47.542857-32.914286-73.142857 0-29.257143 10.971429-54.857143 29.257143-76.8 18.285714-21.942857 47.542857-32.914286 73.142857-32.914286 201.142857 0 340.114286 51.2 420.571429 157.257143 54.857143 73.142857 76.8 146.285714 91.428571 314.514285v7.314286c10.971429 124.342857 21.942857 168.228571 47.542857 204.8 36.571429 47.542857 117.028571 69.485714 245.028572 65.828572 58.514286 0 106.057143 43.885714 109.714285 102.4 0 58.514286-43.885714 106.057143-102.4 109.714285-3.657143 3.657143-10.971429 3.657143-21.942857 3.657143zM117.028571 190.171429c146.285714 0 237.714286 29.257143 288.914286 95.085714 36.571429 47.542857 47.542857 98.742857 62.171429 234.057143v7.314285c14.628571 160.914286 29.257143 219.428571 80.457143 285.257143 69.485714 91.428571 193.828571 135.314286 376.685714 128 29.257143 0 51.2-25.6 51.2-51.2 0-29.257143-21.942857-51.2-51.2-51.2-149.942857 3.657143-241.371429-25.6-292.571429-87.771428-32.914286-43.885714-47.542857-95.085714-58.514285-234.057143v-7.314286c-14.628571-157.257143-32.914286-219.428571-80.457143-285.257143C413.257143 131.657143 292.571429 87.771429 109.714286 87.771429c-14.628571 0-25.6 3.657143-36.571429 14.628571-10.971429 10.971429-14.628571 21.942857-14.628571 36.571429s3.657143 25.6 14.628571 36.571428c10.971429 7.314286 21.942857 14.628571 36.571429 14.628572h7.314285z" fill="#FFFFFF" p-id="1714"></path></svg>